<?xml version="1.0" standalone="no"?>
<!DOCTYPE svg PUBLIC "-//W3C//DTD SVG 20010904//EN"
 "http://www.w3.org/TR/2001/REC-SVG-20010904/DTD/svg10.dtd">
<svg version="1.0" xmlns="http://www.w3.org/2000/svg"
 width="181.000000pt" height="181.000000pt" viewBox="0 0 181.000000 181.000000"
 preserveAspectRatio="xMidYMid meet">
<metadata>
Created by potrace 1.14, written by Peter Selinger 2001-2017
</metadata>
<g transform="translate(0.000000,181.000000) scale(0.100000,-0.100000)"
fill="#000000" stroke="none">
<path d="M1288 1739 c-146 -23 -242 -142 -277 -344 -1 -3 -1 -41 -1 -84 l0
-79 -112 -56 c-144 -72 -203 -105 -294 -167 l-74 -50 0 316 c0 173 -2 315 -4
315 -3 0 -41 -18 -85 -40 -98 -50 -153 -104 -183 -178 -21 -54 -23 -73 -26
-356 l-3 -299 -51 -61 c-56 -66 -108 -144 -108 -160 0 -6 21 10 48 35 26 25
61 56 77 68 l30 23 5 -275 5 -275 65 27 c86 35 138 71 172 122 49 74 56 122
57 390 l1 176 108 37 c112 38 224 68 231 60 2 -2 -2 -58 -8 -125 -7 -66 -11
-123 -9 -124 2 -2 37 16 78 40 l75 43 3 -355 2 -354 61 48 c89 70 162 147 188
198 40 80 49 154 50 420 l1 250 48 40 c163 136 296 293 335 393 25 64 24 151
-3 206 -23 48 -84 108 -141 139 l-34 18 27 -21 c122 -95 78 -225 -135 -395
-45 -36 -85 -65 -91 -65 -5 0 -7 43 -3 105 4 92 8 111 31 145 56 85 138 54
148 -55 l3 -30 33 44 c66 90 67 166 4 229 -55 55 -145 77 -244 61z"/>
</g>
</svg>
